<?xml version="1.0" encoding="utf-8"?>
<!-- Generator: Adobe Illustrator 21.0.0, SVG Export Plug-In . SVG Version: 6.00 Build 0)  -->
<svg version="1.1" id="Layer_1" xmlns="http://www.w3.org/2000/svg" xmlns:xlink="http://www.w3.org/1999/xlink" x="0px" y="0px"
	 viewBox="0 0 385.3 429.3" style="enable-background:new 0 0 385.3 429.3;" xml:space="preserve">
<style type="text/css">
	.st0{fill:#E9F3FA;}
	.st1{fill:url(#SVGID_1_);}
	.st2{clip-path:url(#SVGID_3_);}
	.st3{fill:#F6B997;}
	.st4{fill:#3C3C3B;}
	.st5{fill:#575756;}
	.st6{fill:#FFFFFF;}
	.st7{fill:#6BD863;}
	.st8{font-family:'OpenSans-Semibold';}
	.st9{font-size:17.36px;}
	.st10{font-family:'OpenSans-Bold';}
	.st11{font-size:23.49px;}
	.st12{fill:#C6C6C5;}
	.st13{fill:#F5F5F5;}
	.st14{fill:#F9CAAB;}
</style>
<title>pay-icon</title>
<g id="OBJECTS">
	<path class="st0" d="M350.1,186.4l20.4-14.2c9.1-6.4,11.4-18.9,5-28.1l0,0c-6.4-9.1-18.9-11.4-28-5l-43.3,30.1
		c-9.1,6.4-21.7,4.1-28-5l0,0c-6.4-9.1-4.1-21.7,5-28.1l12.7-8.8c9.1-6.4,11.4-18.9,5-28l0,0c-6.4-9.1-4.1-21.7,5-28.1l43.2-30
		c9.1-6.4,11.4-18.9,5-28l0,0c-6.4-9.1-18.9-11.4-28-5L246.6,62c-9.1,6.4-21.7,4.1-28.1-5l0,0c-6.4-9.1-18.9-11.4-28.1-5L14.9,174
		c-9.1,6.4-11.4,18.9-5,28.1l0,0c6.4,9.1,18.9,11.4,28.1,5l68.7-47.8c9.1-6.4,21.7-4.1,28.1,5l0,0c6.4,9.1,4.1,21.7-5,28.1
		l-17.8,12.4c-9.1,6.4-11.4,18.9-5,28.1l0,0c6.4,9.1,4.1,21.7-5,28.1L42,302.4c-9.1,6.4-11.4,18.9-5,28l0,0
		c6.4,9.1,18.9,11.4,28.1,5L80.2,325c9.1-6.4,21.7-4.1,28.1,5l0,0c6.4,9.1,4.1,21.7-5,28l-43.3,30.1c-9.1,6.4-11.4,18.9-5,28l0,0
		c6.4,9.1,18.9,11.4,28,5l257-178.7c9.1-6.4,11.4-18.9,5-28.1l0,0C338.7,205.3,340.9,192.7,350.1,186.4
		C350.1,186.4,350.1,186.4,350.1,186.4z"/>
	
		<linearGradient id="SVGID_1_" gradientUnits="userSpaceOnUse" x1="86.8106" y1="321.1994" x2="277.7294" y2="130.2806" gradientTransform="matrix(1 0 0 -1 0 432)">
		<stop  offset="0" style="stop-color:#72BEF7"/>
		<stop  offset="1" style="stop-color:#467BE8"/>
	</linearGradient>
	<circle class="st1" cx="182.3" cy="206.3" r="135"/>
	<g>
		<defs>
			<circle id="SVGID_2_" cx="182.3" cy="206.3" r="135"/>
		</defs>
		<clipPath id="SVGID_3_">
			<use xlink:href="#SVGID_2_"  style="overflow:visible;"/>
		</clipPath>
		<g class="st2">
			<path class="st3" d="M269,163.3c-3.7-6.3-11.8-8.5-18.1-4.9l-26.5,15.3v30.6l39.8-23C270.5,177.7,272.6,169.7,269,163.3z"/>
			<polygon class="st3" points="220,342.8 232.8,295 128.6,295 128.6,342.8 			"/>
			<path class="st4" d="M225.6,320.9h-84.9c-6.7,0-12.1-5.4-12.1-12.1v-166c0-6.7,5.4-12.1,12.1-12.1l0,0h84.9
				c6.7,0,12.1,5.4,12.1,12.1c0,0,0,0,0,0v166C237.7,315.5,232.3,320.9,225.6,320.9L225.6,320.9"/>
			<path class="st5" d="M183.1,302.1c3.2,0,5.8,2.6,5.8,5.9s-2.6,5.9-5.9,5.9c-3.2,0-5.8-2.6-5.8-5.9S179.9,302.1,183.1,302.1
				L183.1,302.1 M183.1,300.2c-4.3,0-7.8,3.5-7.8,7.8s3.5,7.8,7.8,7.8c4.3,0,7.8-3.5,7.8-7.8l0,0
				C190.9,303.6,187.4,300.2,183.1,300.2z"/>
			<rect x="138.3" y="156.7" class="st6" width="89.6" height="138.3"/>
			<path class="st5" d="M192.9,142.2c1.1,0,1.9,0.9,1.9,1.9c0,1.1-0.9,1.9-1.9,1.9h-19.5c-1.1,0-1.9-0.9-1.9-1.9
				c0-1.1,0.9-1.9,1.9-1.9H192.9z"/>
			<path class="st7" d="M155,239.9h56.3c3.8,0,6.9,3.1,6.9,6.9v18.7c0,3.8-3.1,6.9-6.9,6.9H155c-3.8,0-6.9-3.1-6.9-6.9v-18.7
				C148,243,151.1,239.9,155,239.9z"/>
			<text transform="matrix(1 0 0 1 167.0542 261.8)" class="st6 st8 st9">PAY</text>
			<text transform="matrix(1 0 0 1 163.01 224.78)" class="st4 st10 st11">$$$</text>
			<rect x="144.2" y="179.2" class="st12" width="77.9" height="7.7"/>
			<rect x="148" y="119.2" class="st13" width="70.2" height="63.9"/>
			<polygon class="st13" points="218.2,120.7 218.2,115.3 214.3,119.2 210.4,115.3 206.5,119.2 202.6,115.3 198.7,119.2 
				194.8,115.3 190.9,119.2 187,115.3 183.1,119.2 179.2,115.3 175.3,119.2 171.4,115.3 167.5,119.2 163.6,115.3 159.7,119.2 
				155.8,115.3 151.9,119.2 148,115.3 148,120.7 			"/>
			<rect x="196.5" y="146.1" class="st12" width="11.9" height="1.9"/>
			<rect x="196.5" y="155.7" class="st12" width="11.9" height="1.9"/>
			<rect x="196.5" y="165.4" class="st12" width="11.9" height="1.9"/>
			<rect x="157.8" y="146.1" class="st12" width="27.4" height="1.9"/>
			<rect x="157.8" y="155.7" class="st12" width="19.7" height="1.9"/>
			<rect x="157.8" y="165.4" class="st12" width="23.5" height="1.9"/>
			<circle class="st14" cx="237.7" cy="215.3" r="13.3"/>
			<circle class="st14" cx="237.7" cy="285.7" r="13.3"/>
			<circle class="st14" cx="237.7" cy="250.5" r="13.3"/>
			<path class="st14" d="M152.8,342.8v-41.4c0-16-13-28.9-28.9-28.9v70.4H152.8z"/>
			<path class="st14" d="M104.5,202.1v140.7h28.9V222.9c0-11.5-9.3-20.8-20.8-20.8c0,0,0,0,0,0H104.5z"/>
		</g>
	</g>
</g>
</svg>
