<svg id="line" enable-background="new 0 0 36 36" height="512" viewBox="0 0 36 36" width="512" xmlns="http://www.w3.org/2000/svg"><path d="m27.623 31.833c-6.917 0-11.667 3.583-15 3.583s-10.333-1.916-10.333-17.249 9.417-17.584 13.083-17.584c17.167 0 24.5 31.25 12.25 31.25z" fill="#efefef"/><g fill="#a4afc1"><path d="m4.82 2.144h1v2h-1z" transform="matrix(.707 -.707 .707 .707 -.665 4.682)"/><path d="m3.967 6.533h2v1h-2z" transform="matrix(.707 -.707 .707 .707 -3.518 5.572)"/><path d="m8.033 2.467h2v1h-2z" transform="matrix(.707 -.707 .707 .707 .548 7.257)"/></g><path d="m27.25 23.25c1.1 0 2-.9 2-2v-6.5c0-1.1-.9-2-2-2h-18.5c-1.1 0-2 .9-2 2v6.5c0 1.1.9 2 2 2z" fill="#2fdf84"/><path d="m24.25 12.5v-3.75c0-1.105-.895-2-2-2h-8.5c-1.1 0-2 .9-2 2v3.75z" fill="#f3f3f1"/><path d="m11.75 19.75h12.5v7.5c0 1.105-.895 2-2 2h-8.5c-1.105 0-2-.895-2-2z" fill="#f3f3f1"/><path d="m9 21.25v-6.5c0-1.1.9-2 2-2h-2.25c-1.1 0-2 .9-2 2v6.5c0 1.1.9 2 2 2h2.25c-1.1 0-2-.9-2-2z" fill="#00b871"/><path d="m16 6.75h-2.25c-1.1 0-2 .9-2 2v3.75h2.25v-3.75c0-1.1.9-2 2-2z" fill="#d5dbe1"/><path d="m14 27.25v-7.5h-2.25v7.5c0 1.105.895 2 2 2h2.25c-1.105 0-2-.895-2-2z" fill="#d5dbe1"/><path d="m27.25 24h-2.75v-1.5h2.75c.689 0 1.25-.561 1.25-1.25v-6.5c0-.689-.561-1.25-1.25-1.25h-18.5c-.689 0-1.25.561-1.25 1.25v6.5c0 .689.561 1.25 1.25 1.25h2.75v1.5h-2.75c-1.517 0-2.75-1.233-2.75-2.75v-6.5c0-1.517 1.233-2.75 2.75-2.75h18.5c1.517 0 2.75 1.233 2.75 2.75v6.5c0 1.517-1.233 2.75-2.75 2.75z"/><path d="m14 25.5h7v1.5h-7z"/><path d="m14 22.5h3v1.5h-3z"/><path d="m25 12.25h-1.5v-3.5c0-.689-.561-1.25-1.25-1.25h-8.5c-.689 0-1.25.561-1.25 1.25v3.5h-1.5v-3.5c0-1.517 1.233-2.75 2.75-2.75h8.5c1.517 0 2.75 1.233 2.75 2.75z"/><path d="m22.25 30h-8.5c-1.517 0-2.75-1.233-2.75-2.75v-7.5c0-.414.336-.75.75-.75h12.5c.414 0 .75.336.75.75v7.5c0 1.517-1.233 2.75-2.75 2.75zm-9.75-9.5v6.75c0 .689.561 1.25 1.25 1.25h8.5c.689 0 1.25-.561 1.25-1.25v-6.75z"/><path d="m2 28.5h32v1.5h-32z"/></svg>