<svg id="Layer_1" data-name="Layer 1" xmlns="http://www.w3.org/2000/svg" xmlns:xlink="http://www.w3.org/1999/xlink" viewBox="0 0 120 120"><defs><style>.cls-1{fill:#fff;}.cls-2{fill:#284191;}.cls-3{fill:url(#linear-gradient);}.cls-4{fill:url(#linear-gradient-2);}.cls-5{fill:url(#linear-gradient-3);}</style><linearGradient id="linear-gradient" x1="26.45" y1="60.8" x2="51.72" y2="55.12" gradientUnits="userSpaceOnUse"><stop offset="0" stop-color="#5054dc"/><stop offset="1" stop-color="#4594f4"/></linearGradient><linearGradient id="linear-gradient-2" x1="45.65" y1="94.17" x2="95.23" y2="55.61" gradientUnits="userSpaceOnUse"><stop offset="0" stop-color="#2452cb"/><stop offset="1" stop-color="#48c3ef"/></linearGradient><linearGradient id="linear-gradient-3" x1="38.57" y1="71.1" x2="100.13" y2="50.2" xlink:href="#linear-gradient-2"/></defs><title>Fav-logo-svg</title><rect class="cls-1" x="10" y="10" width="100" height="100" rx="22.27" ry="22.27"/><path class="cls-2" d="M22,40.33a9.89,9.89,0,0,1,3.09,1.8A7.84,7.84,0,0,1,27.93,48V66.47A14.76,14.76,0,0,0,41.4,81.17,13.6,13.6,0,0,0,54.16,67.6V52.1a11.62,11.62,0,0,1,1.27-4.87,13.25,13.25,0,0,1,3.39-4.38,8,8,0,0,0-4.67-3.55,9.47,9.47,0,0,0-3-.53h-25"/><path class="cls-3" d="M49.23,54.62c0,12.07,1.3,22.58-6.91,26.34a2.31,2.31,0,0,1-1.2.19A14.76,14.76,0,0,1,27.93,66.47V48a7.84,7.84,0,0,0-2.82-5.91,10.33,10.33,0,0,0-6.37-2.44.46.46,0,0,1-.3-.78.46.46,0,0,1,.33-.13H50.65a10,10,0,0,1,6.32,2S49.23,42.24,49.23,54.62Z"/><path class="cls-4" d="M101.7,39.23a.46.46,0,0,1-.44.46,10.33,10.33,0,0,0-6.37,2.44A7.84,7.84,0,0,0,92.07,48V66.47A14.76,14.76,0,0,1,77.31,81.23s9-2.46,9-12.33V59.19c0-14.67,8-20.41,15.09-20.41A.46.46,0,0,1,101.7,39.23Z"/><path class="cls-5" d="M94.81,38.77h0a18.37,18.37,0,0,0-10,16.32V67.7c0,7.93-5.6,13.47-13.47,13.47H56.68L46.4,81.08h0c4.08-.75,9.53-6.2,9.53-12.82l-.09-12.57V54.33A15.57,15.57,0,0,1,71.4,38.77Z"/></svg>