<svg id="Layer_1" data-name="Layer 1" xmlns="http://www.w3.org/2000/svg" xmlns:xlink="http://www.w3.org/1999/xlink" viewBox="0 0 1080 1080"><defs><style>.cls-1{fill:#284191;}.cls-2{fill:url(#linear-gradient);}.cls-3{fill:url(#linear-gradient-2);}.cls-4{fill:url(#linear-gradient-3);}.cls-5{font-size:107.18px;fill:#60656d;font-family:Nunito-Light, Nunito;}.cls-6{font-family:Nunito-SemiBold, Nunito;}.cls-10,.cls-11,.cls-6,.cls-7,.cls-8,.cls-9{font-weight:700;}.cls-10,.cls-11,.cls-7,.cls-8,.cls-9{font-family:Nunito-Bold, Nunito;}.cls-7{letter-spacing:-0.01em;}.cls-8{letter-spacing:0em;}.cls-9{letter-spacing:0em;}.cls-10{letter-spacing:-0.01em;}.cls-11{letter-spacing:0em;}</style><linearGradient id="linear-gradient" x1="355.04" y1="448.23" x2="494.36" y2="416.9" gradientUnits="userSpaceOnUse"><stop offset="0" stop-color="#5054dc"/><stop offset="1" stop-color="#4594f4"/></linearGradient><linearGradient id="linear-gradient-2" x1="460.89" y1="632.17" x2="734.19" y2="419.6" gradientUnits="userSpaceOnUse"><stop offset="0" stop-color="#2452cb"/><stop offset="1" stop-color="#48c3ef"/></linearGradient><linearGradient id="linear-gradient-3" x1="421.89" y1="505.01" x2="761.21" y2="389.78" xlink:href="#linear-gradient-2"/></defs><title>Main-logo-svg</title><path class="cls-1" d="M330.65,335.36a54.51,54.51,0,0,1,17,9.94c9.6,8.35,15.54,19.88,15.54,32.6V479.5a81.34,81.34,0,0,0,74.24,81,75,75,0,0,0,70.33-74.84v-85.4c0-7.66,2.36-17.35,7-26.86a73.05,73.05,0,0,1,18.71-24.15c-4.27-8.76-14.61-15.86-25.72-19.59a52.19,52.19,0,0,0-16.48-2.9H353.42"/><path class="cls-2" d="M480.62,414.16c0,66.54,7.14,124.47-38.07,145.17a12.73,12.73,0,0,1-6.63,1.06,81.35,81.35,0,0,1-72.69-80.89V377.9c0-12.72-5.94-24.25-15.54-32.6a57,57,0,0,0-35.14-13.45,2.54,2.54,0,0,1-1.67-4.33,2.56,2.56,0,0,1,1.79-.74H488.48c7.17,0,19.32,0,34.85,10.9C523.34,337.68,480.62,345.92,480.62,414.16Z"/><path class="cls-3" d="M769.86,329.31a2.51,2.51,0,0,1-2.41,2.53,57,57,0,0,0-35.14,13.45c-9.6,8.35-15.54,19.88-15.54,32.6V479.5a81.35,81.35,0,0,1-81.36,81.36s49.34-13.54,49.34-68V439.35c0-80.86,44-112.49,83.17-112.49A2.52,2.52,0,0,1,769.86,329.31Z"/><path class="cls-4" d="M731.89,326.78h0c-43.66,22.42-55.23,64.44-55.23,90v69.52c0,43.73-30.84,74.24-74.24,74.24H521.68L465,560h0c22.5-4.13,52.56-34.2,52.56-70.68l-.51-69.28v-7.49a85.81,85.81,0,0,1,85.81-85.81Z"/><text class="cls-5" transform="translate(67.89 723.75)">RUMAH<tspan class="cls-6" x="398.26" y="0"> </tspan><tspan class="cls-7" x="426.56" y="0">L</tspan><tspan class="cls-8" x="485.4" y="0">A</tspan><tspan class="cls-9" x="564.38" y="0">UND</tspan><tspan class="cls-10" x="803.81" y="0">R</tspan><tspan class="cls-11" x="877.44" y="0">Y</tspan></text></svg>