<svg id="Layer_1" data-name="Layer 1" xmlns="http://www.w3.org/2000/svg" xmlns:xlink="http://www.w3.org/1999/xlink" viewBox="0 0 1600 290"><defs><style>.cls-1,.cls-7,.cls-8,.cls-9{fill:#fff;}.cls-2{fill:#284191;}.cls-3{fill:url(#linear-gradient);}.cls-4{fill:url(#linear-gradient-2);}.cls-5{fill:url(#linear-gradient-3);}.cls-6,.cls-7,.cls-8,.cls-9{isolation:isolate;}.cls-7,.cls-8,.cls-9{font-size:139.67px;}.cls-7{font-family:Nunito-Light, Nunito;}.cls-8,.cls-9{font-family:Nunito-Bold, Nunito;font-weight:700;}.cls-9{letter-spacing:-0.01em;}</style><linearGradient id="linear-gradient" x1="54.87" y1="142.82" x2="123.56" y2="158.27" gradientTransform="matrix(1, 0, 0, -1, 0, 290)" gradientUnits="userSpaceOnUse"><stop offset="0" stop-color="#5054dc"/><stop offset="1" stop-color="#4594f4"/></linearGradient><linearGradient id="linear-gradient-2" x1="107.07" y1="52.14" x2="241.8" y2="156.94" gradientTransform="matrix(1, 0, 0, -1, 0, 290)" gradientUnits="userSpaceOnUse"><stop offset="0" stop-color="#2452cb"/><stop offset="1" stop-color="#48c3ef"/></linearGradient><linearGradient id="linear-gradient-3" x1="87.83" y1="114.84" x2="255.11" y2="171.65" xlink:href="#linear-gradient-2"/></defs><title>Artboard 1</title><rect class="cls-1" x="10.17" y="9.12" width="271.76" height="271.76" rx="60.19" ry="60.19"/><path class="cls-2" d="M42.85,91.53a26.87,26.87,0,0,1,8.39,4.9A21.3,21.3,0,0,1,58.9,112.5v50.09a40.1,40.1,0,0,0,36.6,39.95,37,37,0,0,0,34.67-36.9v-42.1a31.58,31.58,0,0,1,3.46-13.24,36,36,0,0,1,9.23-11.91c-2.1-4.32-7.2-7.82-12.68-9.66a25.73,25.73,0,0,0-8.13-1.43h-68"/><path class="cls-3" d="M116.78,130.38c0,32.8,3.52,61.36-18.77,71.57a6.28,6.28,0,0,1-3.27.52A40.11,40.11,0,0,1,58.9,162.59V112.5a21.3,21.3,0,0,0-7.66-16.07A28.08,28.08,0,0,0,33.92,89.8,1.25,1.25,0,0,1,34,87.31h86.68a27,27,0,0,1,17.18,5.37S116.78,96.74,116.78,130.38Z"/><path class="cls-4" d="M259.38,88.55a1.24,1.24,0,0,1-1.19,1.25,28.08,28.08,0,0,0-17.32,6.63,21.3,21.3,0,0,0-7.66,16.07v50.09a40.1,40.1,0,0,1-40.09,40.11h0s24.32-6.67,24.32-33.5V142.8c0-39.86,21.67-55.46,41-55.46A1.24,1.24,0,0,1,259.38,88.55Z"/><path class="cls-5" d="M240.66,87.3h0c-21.53,11-27.23,31.77-27.23,44.36v34.27c0,21.56-15.21,36.6-36.6,36.6H137l-27.94-.24h0c11.09-2,25.91-16.86,25.91-34.85l-.25-34.16v-3.69A42.31,42.31,0,0,1,177,87.3Z"/><g class="cls-6"><text class="cls-7" transform="translate(359.36 193.4)">RUMAH</text><text class="cls-8" transform="translate(878.36 193.4)"> </text><text class="cls-9" transform="translate(915.23 193.4)">L</text><text class="cls-8" transform="translate(991.91 193.4)">A</text><text class="cls-8" transform="translate(1094.84 193.4)">UND</text><text class="cls-9" transform="translate(1406.86 193.4)">R</text><text class="cls-8" transform="translate(1502.81 193.4)">Y</text></g></svg>